<?xml version="1.0" encoding="utf-8"?>
<!-- Generator: Adobe Illustrator 15.0.0, SVG Export Plug-In . SVG Version: 6.00 Build 0)  -->
<!DOCTYPE svg PUBLIC "-//W3C//DTD SVG 1.1//EN" "http://www.w3.org/Graphics/SVG/1.1/DTD/svg11.dtd">
<svg version="1.1"
	 id="svg2" xmlns:dc="http://purl.org/dc/elements/1.1/" xmlns:cc="http://creativecommons.org/ns#" xmlns:rdf="http://www.w3.org/1999/02/22-rdf-syntax-ns#" sodipodi:docname="facebook &amp; twitter 2.svg" xmlns:sodipodi="http://sodipodi.sourceforge.net/DTD/sodipodi-0.dtd" xmlns:inkscape="http://www.inkscape.org/namespaces/inkscape" inkscape:version="0.47 r22583" xmlns:svg="http://www.w3.org/2000/svg"
	 xmlns="http://www.w3.org/2000/svg" xmlns:xlink="http://www.w3.org/1999/xlink" x="0px" y="0px" width="744.094px"
	 height="1052.363px" viewBox="0 0 744.094 1052.363" enable-background="new 0 0 744.094 1052.363" xml:space="preserve">
<filter  id="filter4618" inkscape:collect="always">
	<feGaussianBlur  id="feGaussianBlur4620" stdDeviation="0.86119537" inkscape:collect="always"></feGaussianBlur>
</filter>
<filter  id="filter4588" inkscape:collect="always">
	<feGaussianBlur  id="feGaussianBlur4590" stdDeviation="0.86119537" inkscape:collect="always"></feGaussianBlur>
</filter>
<filter  id="filter3944" inkscape:collect="always">
	<feGaussianBlur  id="feGaussianBlur3946" stdDeviation="4.2199628" inkscape:collect="always"></feGaussianBlur>
</filter>
<filter  id="filter3878" inkscape:collect="always">
	<feGaussianBlur  id="feGaussianBlur3880" stdDeviation="1.4066543" inkscape:collect="always"></feGaussianBlur>
</filter>
<defs>
	
	
		<inkscape:perspective  id="perspective10" sodipodi:type="inkscape:persp3d" inkscape:vp_x="0 : 526.18109 : 1" inkscape:vp_y="0 : 1000 : 0" inkscape:vp_z="744.09448 : 526.18109 : 1" inkscape:persp3d-origin="372.04724 : 350.78739 : 1">
		</inkscape:perspective>
	
		<inkscape:perspective  id="perspective2824" sodipodi:type="inkscape:persp3d" inkscape:vp_x="0 : 0.5 : 1" inkscape:vp_y="0 : 1000 : 0" inkscape:vp_z="1 : 0.5 : 1" inkscape:persp3d-origin="0.5 : 0.33333333 : 1">
		</inkscape:perspective>
	
		<inkscape:perspective  id="perspective2838" sodipodi:type="inkscape:persp3d" inkscape:vp_x="0 : 0.5 : 1" inkscape:vp_y="0 : 1000 : 0" inkscape:vp_z="1 : 0.5 : 1" inkscape:persp3d-origin="0.5 : 0.33333333 : 1">
		</inkscape:perspective>
	
		<inkscape:perspective  id="perspective3023" sodipodi:type="inkscape:persp3d" inkscape:vp_x="0 : 0.5 : 1" inkscape:vp_y="0 : 1000 : 0" inkscape:vp_z="1 : 0.5 : 1" inkscape:persp3d-origin="0.5 : 0.33333333 : 1">
		</inkscape:perspective>
	
		<inkscape:perspective  id="perspective4665" sodipodi:type="inkscape:persp3d" inkscape:vp_x="0 : 0.5 : 1" inkscape:vp_y="0 : 1000 : 0" inkscape:vp_z="1 : 0.5 : 1" inkscape:persp3d-origin="0.5 : 0.33333333 : 1">
		</inkscape:perspective>
	
		<inkscape:perspective  id="perspective4761" sodipodi:type="inkscape:persp3d" inkscape:vp_x="0 : 0.5 : 1" inkscape:vp_y="0 : 1000 : 0" inkscape:vp_z="1 : 0.5 : 1" inkscape:persp3d-origin="0.5 : 0.33333333 : 1">
		</inkscape:perspective>
	
		<inkscape:perspective  id="perspective4810" sodipodi:type="inkscape:persp3d" inkscape:vp_x="0 : 0.5 : 1" inkscape:vp_y="0 : 1000 : 0" inkscape:vp_z="1 : 0.5 : 1" inkscape:persp3d-origin="0.5 : 0.33333333 : 1">
		</inkscape:perspective>
</defs>
<sodipodi:namedview  id="base" inkscape:window-y="24" inkscape:pageopacity="0.0" borderopacity="1.0" pagecolor="#ffffff" bordercolor="#666666" inkscape:window-maximized="1" showguides="true" inkscape:guide-bbox="true" inkscape:window-width="1672" inkscape:window-height="974" inkscape:window-x="0" inkscape:pageshadow="2" inkscape:zoom="0.436992" inkscape:cx="994.79425" inkscape:cy="453.87547" inkscape:document-units="px" inkscape:current-layer="layer1" showgrid="false" inkscape:snap-global="true">
	</sodipodi:namedview>
<linearGradient id="path3691_1_" gradientUnits="userSpaceOnUse" x1="624.5923" y1="361.8369" x2="624.5923" y2="571.9914" gradientTransform="matrix(0.8699 0 0 -0.8699 23.9118 1266.1267)">
	<stop  offset="0" style="stop-color:#79D2E1"/>
	<stop  offset="1" style="stop-color:#23AEC3"/>
</linearGradient>
<path id="path3691" sodipodi:nodetypes="csccsccsccscc" fill="url(#path3691_1_)" d="M476.704,663.376
	c-14.221-0.002-28.354,5.852-38.408,15.906c-10.055,10.057-15.908,24.189-15.906,38.408v179.361
	c-0.002,14.221,5.852,28.354,15.906,38.408s24.188,15.908,38.408,15.906h181.074c14.219,0.002,28.352-5.852,38.406-15.906
	c10.057-10.055,15.908-24.188,15.908-38.408V717.691c0-14.219-5.852-28.352-15.908-38.408
	c-10.055-10.055-24.188-15.906-38.406-15.906H476.704z"/>
<path id="path3693" sodipodi:nodetypes="csccsccsccscc" opacity="0.4634" fill="none" stroke="#FFFFFF" stroke-width="12.495" enable-background="new    " d="
	M484.358,675.552c-13.018-0.002-25.955,5.357-35.16,14.562c-9.203,9.205-14.562,22.143-14.561,35.16V889.47
	c-0.002,13.018,5.357,25.955,14.561,35.16c9.205,9.205,22.143,14.562,35.16,14.561h165.764c13.018,0.002,25.955-5.355,35.16-14.561
	s14.562-22.143,14.562-35.16V725.275c0-13.018-5.357-25.955-14.562-35.16s-22.143-14.562-35.16-14.562H484.358L484.358,675.552z"/>
<path id="path3717" sodipodi:nodetypes="cssssssssssssssssccssssscc" fill="#FFFFFF" d="M542.813,916.455
	c-6.012-0.658-13.064-2.385-19.119-4.676c-2.945-1.113-5.469-2.162-5.609-2.33c-0.139-0.168-1.516-0.977-3.059-1.797
	c-13.502-7.188-24.535-21.133-29.521-37.314c-3.195-10.369-3.109-8.316-3.109-73.402c0-62.652-0.092-59.854,2.223-67.004
	c2.16-6.674,6.863-13.498,12.658-18.365c3.799-3.191,11.186-7.043,16.221-8.461c4.951-1.393,16.197-1.297,21.537,0.186
	c4.26,1.182,11.936,4.92,14.408,7.02c10.816,9.18,15.693,18.572,16.406,31.602c0.176,3.203,0.549,5.77,0.873,5.982
	c0.311,0.207,10.889,0.379,23.508,0.385c28.303,0.01,30.479,0.283,39.77,5.018c3.518,1.791,6.113,3.711,9.621,7.121
	c17.566,17.062,16.324,46.445-2.623,62.074c-5.785,4.77-11.684,7.367-20.949,9.217c-2.846,1.07,1.748,2.117,2.861,2.346
	c4.869,0.98,15.117,5.461,21.615,12.139c3.695,3.799,4.82,5.377,6.971,9.777c3.568,7.297,4.402,10.898,4.402,19.014
	c0,7.516-0.799,11.402-3.592,17.508c-5.918,12.932-17.953,21.916-32.17,24.014C611.684,917.162,548.868,917.119,542.813,916.455
	L542.813,916.455L542.813,916.455z"/>
<linearGradient id="path3719_1_" gradientUnits="userSpaceOnUse" x1="-182.3555" y1="423.3179" x2="-184.0799" y2="626.5352" gradientTransform="matrix(0.8699 0 0 -0.8699 726.304 1266.1267)">
	<stop  offset="0" style="stop-color:#60D7F2"/>
	<stop  offset="1" style="stop-color:#C8F6FC"/>
</linearGradient>
<path id="path3719" sodipodi:nodetypes="cccssssccccczccccccczssssssscscc" fill="url(#path3719_1_)" d="M524.602,721.416
	c-3.66-0.01-7.375,0.99-10.846,2.664c-5.51,2.734-8.588,7.098-10.928,12.531c-0.951,2.549-1.066,4.291-1.305,23.135
	c-0.838,65.855-0.906,91.732-0.299,96.041c3.125,22.219,17.266,37.344,38.928,41.646c1.162,0.23,4.367,0.391,10.572,0.496
	c6.207,0.107,15.412,0.162,28.572,0.184l31.469,0.072c0,0,3.211,0.127,4.496-0.115c7.387-1.828,12.619-6.826,16.229-13.359
	c5.408-11.467,0.537-24.818-11.172-30.637c0,0-1.947-1.16-4.078-1.664c-2.129-0.504-8.572-0.385-8.572-0.385l-8.574-0.01
	l-17.146-0.02l-34.293-0.041l0.164-38.738l21.938-0.055l34.252-0.244c5.719-0.012,12.176-0.359,15.852-2.023
	c3.678-1.664,8.324-5.213,10.625-9.748c3.617-7.125,3.514-14.932-0.244-21.502c-1.854-3.24-6.191-7.662-8.861-9.025
	c-5.131-2.617-3.871-2.533-40.205-2.664c-18.721-0.066-34.135-0.234-34.254-0.354c-0.117-0.117-0.293-6.402-0.406-13.973
	c-0.115-7.568-0.371-14.281-0.545-14.924c-1.07-3.982-2.367-6.566-4.43-8.834c-3.01-4.141-6.836-6.395-11.988-7.803
	C527.94,721.628,526.268,721.419,524.602,721.416L524.602,721.416z"/>
<g>
	<defs>
		<path id="SVGID_1_" d="M476.704,663.376c-14.221-0.002-28.354,5.852-38.408,15.906c-10.055,10.057-15.908,24.189-15.906,38.408
			v179.361c-0.002,14.221,5.852,28.354,15.906,38.408s24.188,15.908,38.408,15.906h181.074c14.219,0.002,28.352-5.852,38.408-15.906
			c10.055-10.055,15.906-24.188,15.906-38.408V717.691c0-14.219-5.852-28.352-15.906-38.408
			c-10.057-10.055-24.189-15.906-38.408-15.906H476.704L476.704,663.376z"/>
	</defs>
	<clipPath id="SVGID_2_">
		<use xlink:href="#SVGID_1_"  overflow="visible"/>
	</clipPath>
	
		<linearGradient id="path3695_1_" gradientUnits="userSpaceOnUse" x1="711.7466" y1="751.0708" x2="655.0634" y2="589.2592" gradientTransform="matrix(0.894 0 0 -0.8699 -51.9381 1294.2791)">
		<stop  offset="0" style="stop-color:#FFFFFF"/>
		<stop  offset="1" style="stop-color:#FFFFFF;stop-opacity:0.6471"/>
	</linearGradient>
	
		<path id="path3695" sodipodi:cx="805.01617" sodipodi:cy="470.24246" sodipodi:type="arc" sodipodi:rx="233.81876" sodipodi:ry="104.77346" opacity="0.385" clip-path="url(#SVGID_2_)" fill="url(#path3695_1_)" enable-background="new    " d="
		M775.542,690.462c0,50.336-93.586,91.143-209.029,91.143s-209.028-40.807-209.028-91.143s93.584-91.143,209.028-91.143
		S775.542,640.126,775.542,690.462z"/>
</g>
<linearGradient id="path3740_1_" gradientUnits="userSpaceOnUse" x1="-220.6074" y1="607.2964" x2="-220.6074" y2="565.389" gradientTransform="matrix(0.8699 0 0 -0.8699 716.1018 1257.4177)">
	<stop  offset="0" style="stop-color:#FFFFFF"/>
	<stop  offset="1" style="stop-color:#FFFFFF;stop-opacity:0"/>
</linearGradient>
<path id="path3740" sodipodi:nodetypes="cccsccsc" opacity="0.516" fill="url(#path3740_1_)" enable-background="new    " d="
	M523.27,726.037c-9.465,0.48-16.988,8.33-16.988,17.914v19.898c0,9.896,8.02,17.916,17.914,17.916s17.914-8.02,17.914-17.916
	v-19.898c0-9.895-8.02-17.914-17.914-17.914C523.885,726.037,523.577,726.021,523.27,726.037z"/>
<linearGradient id="path3752_1_" gradientUnits="userSpaceOnUse" x1="-232.3354" y1="620.8755" x2="-232.3354" y2="602.7913" gradientTransform="matrix(0.8699 0 0 -0.8699 726.304 1266.1267)">
	<stop  offset="0" style="stop-color:#FFFFFF"/>
	<stop  offset="1" style="stop-color:#FFFFFF;stop-opacity:0"/>
</linearGradient>
<path id="path3752" opacity="0.626" fill="url(#path3752_1_)" enable-background="new    " d="M523.27,726.037
	c-9.465,0.48-16.988,8.33-16.988,17.914c0,0.713,0.027,1.404,0.107,2.094c1.055-8.891,8.633-15.795,17.807-15.795
	s16.725,6.904,17.777,15.795c0.082-0.689,0.137-1.381,0.137-2.094c0-9.895-8.02-17.914-17.914-17.914
	C523.885,726.037,523.577,726.021,523.27,726.037z"/>
<radialGradient id="path3780_1_" cx="-155.2568" cy="793.4409" r="47.0581" gradientTransform="matrix(1.2771 0 0 -0.4866 798.9716 1158.3552)" gradientUnits="userSpaceOnUse">
	<stop  offset="0" style="stop-color:#FFFFFF"/>
	<stop  offset="1" style="stop-color:#FFFFFF;stop-opacity:0"/>
</radialGradient>
<path id="path3780" sodipodi:nodetypes="csccscc" opacity="0.626" fill="url(#path3780_1_)" enable-background="new    " d="
	M550.325,772.304c-10.168,0-18.43,8.234-18.43,18.404s8.262,18.43,18.43,18.43h59.719c10.17,0,18.404-8.26,18.404-18.43
	s-8.234-18.404-18.404-18.404H550.325z"/>
<path id="rect4691" fill="none" stroke="#0F282D" stroke-width="2" d="M443.754,283.13h248.457c10.676,0,19.33,8.654,19.33,19.329
	v248.356c0,10.676-8.654,19.328-19.33,19.328H443.754c-10.676,0-19.328-8.652-19.328-19.328V302.459
	C424.426,291.784,433.079,283.13,443.754,283.13z"/>
<radialGradient id="rect4693_1_" cx="1267.5942" cy="328.9946" r="143.5576" gradientTransform="matrix(1.1809 0 0 -1.5407 -928.9598 1011.1868)" gradientUnits="userSpaceOnUse">
	<stop  offset="0" style="stop-color:#87EFFF"/>
	<stop  offset="1" style="stop-color:#0C96AC"/>
</radialGradient>
<path id="rect4693" fill="url(#rect4693_1_)" d="M443.754,283.13h248.457c10.676,0,19.33,8.654,19.33,19.329v248.356
	c0,10.676-8.654,19.328-19.33,19.328H443.754c-10.676,0-19.328-8.652-19.328-19.328V302.459
	C424.426,291.784,433.079,283.13,443.754,283.13z"/>
<path id="path4697" sodipodi:nodetypes="cssssssssssssssssccssssscc" fill="#FFFFFF" d="M543.034,534.542
	c-6.086-0.668-13.227-2.414-19.355-4.734c-2.98-1.127-5.537-2.189-5.678-2.359c-0.143-0.168-1.535-0.988-3.098-1.819
	c-13.67-7.275-24.84-21.394-29.887-37.775c-3.234-10.498-3.146-8.419-3.146-74.311c0-63.426-0.094-60.593,2.248-67.832
	c2.188-6.757,6.949-13.664,12.814-18.591c3.848-3.231,11.324-7.131,16.422-8.565c5.014-1.411,16.398-1.313,21.803,0.187
	c4.314,1.196,12.084,4.982,14.588,7.106c10.951,9.293,15.887,18.803,16.609,31.993c0.178,3.241,0.557,5.84,0.883,6.057
	c0.314,0.209,11.025,0.383,23.799,0.388c28.654,0.011,30.854,0.288,40.262,5.08c3.561,1.814,6.188,3.759,9.74,7.21
	c17.783,17.273,16.525,47.019-2.656,62.841c-5.855,4.83-11.828,7.458-21.209,9.332c-2.879,1.082,1.771,2.143,2.896,2.375
	c4.93,0.991,15.305,5.526,21.883,12.288c3.74,3.846,4.881,5.443,7.059,9.898c3.611,7.386,4.455,11.033,4.455,19.248
	c0,7.608-0.807,11.544-3.637,17.725c-5.99,13.091-18.174,22.185-32.566,24.31C612.756,535.259,549.163,535.214,543.034,534.542
	L543.034,534.542L543.034,534.542z"/>
<linearGradient id="path4699_1_" gradientUnits="userSpaceOnUse" x1="-182.6826" y1="420.2207" x2="-184.4071" y2="623.439" gradientTransform="matrix(0.8806 0 0 -0.8806 729.0819 885.8087)">
	<stop  offset="0" style="stop-color:#60D7F2"/>
	<stop  offset="1" style="stop-color:#C8F6FC"/>
</linearGradient>
<path id="path4699" sodipodi:nodetypes="cccssssccccczccccccczssssssscscc" fill="url(#path4699_1_)" d="M524.598,337.092
	c-3.707-0.01-7.467,1.002-10.98,2.697c-5.578,2.768-8.693,7.186-11.062,12.687c-0.965,2.58-1.08,4.344-1.322,23.42
	c-0.846,66.67-0.916,92.867-0.303,97.229c3.166,22.493,17.48,37.805,39.41,42.161c1.176,0.233,4.422,0.394,10.703,0.502
	c6.283,0.108,15.602,0.163,28.926,0.186l31.857,0.072c0,0,3.25,0.129,4.553-0.115c7.479-1.851,12.773-6.911,16.43-13.524
	c5.475-11.609,0.543-25.126-11.312-31.016c0,0-1.971-1.176-4.127-1.686c-2.156-0.511-8.68-0.389-8.68-0.389l-8.68-0.01
	l-17.357-0.021l-34.717-0.041l0.164-39.217l22.209-0.055l34.676-0.248c5.791-0.011,12.326-0.363,16.049-2.048
	c3.721-1.686,8.426-5.277,10.756-9.868c3.662-7.213,3.559-15.118-0.248-21.769c-1.877-3.28-6.268-7.757-8.971-9.137
	c-5.193-2.649-3.918-2.564-40.703-2.697c-18.949-0.068-34.555-0.237-34.676-0.357c-0.119-0.119-0.295-6.482-0.412-14.146
	s-0.375-14.457-0.551-15.108c-1.084-4.032-2.396-6.648-4.486-8.944c-3.045-4.19-6.92-6.473-12.135-7.898
	C527.977,337.307,526.284,337.096,524.598,337.092L524.598,337.092L524.598,337.092z"/>
<linearGradient id="path4701_1_" gradientUnits="userSpaceOnUse" x1="-220.9375" y1="604.1978" x2="-220.9375" y2="562.2916" gradientTransform="matrix(0.8806 0 0 -0.8806 718.7538 876.9922)">
	<stop  offset="0" style="stop-color:#FFFFFF"/>
	<stop  offset="1" style="stop-color:#FFFFFF;stop-opacity:0"/>
</linearGradient>
<path id="path4701" sodipodi:nodetypes="cccsccsc" opacity="0.516" fill="url(#path4701_1_)" enable-background="new    " d="
	M523.25,341.771c-9.584,0.485-17.201,8.432-17.201,18.136v20.145c0,10.017,8.119,18.136,18.137,18.136
	c10.016,0,18.135-8.119,18.135-18.136v-20.145c0-10.018-8.119-18.136-18.135-18.136C523.872,341.771,523.559,341.754,523.25,341.771
	z"/>
<linearGradient id="path4703_1_" gradientUnits="userSpaceOnUse" x1="-232.6655" y1="617.7778" x2="-232.6655" y2="599.6945" gradientTransform="matrix(0.8806 0 0 -0.8806 729.0819 885.8087)">
	<stop  offset="0" style="stop-color:#FFFFFF"/>
	<stop  offset="1" style="stop-color:#FFFFFF;stop-opacity:0"/>
</linearGradient>
<path id="path4703" opacity="0.626" fill="url(#path4703_1_)" enable-background="new    " d="M523.25,341.771
	c-9.584,0.485-17.201,8.432-17.201,18.136c0,0.721,0.029,1.42,0.111,2.119c1.066-9,8.738-15.989,18.025-15.989
	s16.932,6.989,17.998,15.989c0.082-0.699,0.137-1.398,0.137-2.119c0-10.018-8.119-18.136-18.135-18.136
	C523.872,341.771,523.559,341.754,523.25,341.771z"/>
<radialGradient id="path4705_1_" cx="-155.4819" cy="787.8999" r="47.057" gradientTransform="matrix(1.2928 0 0 -0.4926 802.6477 776.7048)" gradientUnits="userSpaceOnUse">
	<stop  offset="0" style="stop-color:#FFFFFF"/>
	<stop  offset="1" style="stop-color:#FFFFFF;stop-opacity:0"/>
</radialGradient>
<path id="path4705" sodipodi:nodetypes="csccscc" opacity="0.626" fill="url(#path4705_1_)" enable-background="new    " d="
	M550.639,388.609c-10.295,0-18.658,8.336-18.658,18.632c0,10.295,8.363,18.658,18.658,18.658h60.455
	c10.295,0,18.631-8.363,18.631-18.658c0-10.296-8.336-18.632-18.631-18.632H550.639z"/>
<path id="rect4707" opacity="0.3455" fill="#FFFFFF" enable-background="new    " d="M448.282,495.509h239
	c8.225,0,14.891,5.834,14.891,13.03v38.867c0,7.197-6.666,13.029-14.891,13.029h-239c-8.225,0-14.893-5.832-14.893-13.029v-38.867
	C433.389,501.343,440.057,495.509,448.282,495.509z"/>
<g id="rect4709" filter="url(#filter3878)">
	<linearGradient id="SVGID_3_" gradientUnits="userSpaceOnUse" x1="1261.0737" y1="406.9639" x2="1261.0737" y2="390.4347">
		<stop  offset="0" style="stop-color:#95C4FF"/>
		<stop  offset="1" style="stop-color:#FFFFFF;stop-opacity:0"/>
	</linearGradient>
	<path fill="none" stroke="url(#SVGID_3_)" stroke-width="2.0142" d="M446.116,285.858H689.85c10.473,0,18.963,8.489,18.963,18.961
		v243.635c0,10.473-8.49,18.963-18.963,18.963H446.116c-10.473,0-18.961-8.49-18.961-18.963V304.82
		C427.155,294.348,435.643,285.858,446.116,285.858z"/>
</g>
<g>
	<defs>
		<path id="SVGID_4_" d="M443.754,283.13h248.457c10.676,0,19.33,8.654,19.33,19.329v248.356c0,10.676-8.654,19.328-19.33,19.328
			H443.754c-10.676,0-19.328-8.652-19.328-19.328V302.459C424.426,291.784,433.079,283.13,443.754,283.13z"/>
	</defs>
	<clipPath id="SVGID_5_">
		<use xlink:href="#SVGID_4_"  overflow="visible"/>
	</clipPath>
	<g id="rect4711" clip-path="url(#SVGID_5_)" filter="url(#filter3944)">
		<linearGradient id="SVGID_6_" gradientUnits="userSpaceOnUse" x1="1261.0737" y1="378.3735" x2="1261.0737" y2="390.4343">
			<stop  offset="0" style="stop-color:#000000"/>
			<stop  offset="1" style="stop-color:#000000;stop-opacity:0"/>
		</linearGradient>
		<path fill="none" stroke="url(#SVGID_6_)" stroke-width="2.9401" d="M443.754,283.13h248.457c10.676,0,19.33,8.654,19.33,19.329
			v248.356c0,10.676-8.654,19.328-19.33,19.328H443.754c-10.676,0-19.328-8.652-19.328-19.328V302.459
			C424.426,291.784,433.079,283.13,443.754,283.13z"/>
	</g>
</g>
<g>
	<defs>
		<path id="SVGID_7_" d="M443.754,283.13h248.457c10.676,0,19.33,8.654,19.33,19.329v248.356c0,10.676-8.654,19.328-19.33,19.328
			H443.754c-10.676,0-19.328-8.652-19.328-19.328V302.459C424.426,291.784,433.079,283.13,443.754,283.13z"/>
	</defs>
	<clipPath id="SVGID_8_">
		<use xlink:href="#SVGID_7_"  overflow="visible"/>
	</clipPath>
	<path id="rect4713" opacity="0.22" clip-path="url(#SVGID_8_)" fill="#FFFFFF" enable-background="new    " d="M567.983,185.234
		L567.983,185.234c134.873,0,244.209,53.746,244.209,120.044l0,0c0,66.299-109.336,120.045-244.209,120.045l0,0
		c-134.873,0-244.208-53.746-244.208-120.045l0,0C323.774,238.979,433.11,185.234,567.983,185.234z"/>
</g>
<g>
	<defs>
		<path id="SVGID_9_" d="M443.754,283.13h248.457c10.676,0,19.33,8.654,19.33,19.329v248.356c0,10.676-8.654,19.328-19.33,19.328
			H443.754c-10.676,0-19.328-8.652-19.328-19.328V302.459C424.426,291.784,433.079,283.13,443.754,283.13z"/>
	</defs>
	<clipPath id="SVGID_10_">
		<use xlink:href="#SVGID_9_"  overflow="visible"/>
	</clipPath>
	<g id="rect4715" clip-path="url(#SVGID_10_)" filter="url(#filter4618)">
		<path fill="none" stroke="#0F282D" stroke-width="2" d="M443.754,283.13h248.457c10.676,0,19.33,8.654,19.33,19.329v248.356
			c0,10.676-8.654,19.328-19.33,19.328H443.754c-10.676,0-19.328-8.652-19.328-19.328V302.459
			C424.426,291.784,433.079,283.13,443.754,283.13z"/>
	</g>
</g>
<path id="rect4673" fill="none" stroke="#0F132E" stroke-width="2" d="M55.988,283.13h248.458c10.675,0,19.329,8.654,19.329,19.329
	v248.356c0,10.676-8.654,19.328-19.329,19.328H55.988c-10.675,0-19.329-8.652-19.329-19.328V302.459
	C36.659,291.784,45.312,283.13,55.988,283.13z"/>
<radialGradient id="rect4675_1_" cx="1267.5923" cy="328.9946" r="143.558" gradientTransform="matrix(1.1809 0 0 -1.5407 -1316.7263 1011.1868)" gradientUnits="userSpaceOnUse">
	<stop  offset="0" style="stop-color:#6795D3"/>
	<stop  offset="1" style="stop-color:#233B63"/>
</radialGradient>
<path id="rect4675" fill="url(#rect4675_1_)" d="M55.988,283.13h248.458c10.675,0,19.329,8.654,19.329,19.329v248.356
	c0,10.676-8.654,19.328-19.329,19.328H55.988c-10.675,0-19.329-8.652-19.329-19.328V302.459
	C36.659,291.784,45.312,283.13,55.988,283.13z"/>
<path id="rect4679" opacity="0.3455" fill="#FFFFFF" enable-background="new    " d="M60.514,495.509h239
	c8.224,0,14.891,5.834,14.891,13.03v38.867c0,7.197-6.667,13.029-14.891,13.029h-239c-8.224,0-14.892-5.832-14.892-13.029v-38.867
	C45.623,501.343,52.29,495.509,60.514,495.509z"/>
<g>
	<defs>
		<path id="SVGID_11_" d="M55.988,283.13h248.458c10.675,0,19.329,8.654,19.329,19.329v248.356c0,10.676-8.654,19.328-19.329,19.328
			H55.988c-10.675,0-19.329-8.652-19.329-19.328V302.459C36.659,291.784,45.312,283.13,55.988,283.13z"/>
	</defs>
	<clipPath id="SVGID_12_">
		<use xlink:href="#SVGID_11_"  overflow="visible"/>
	</clipPath>
	<path id="rect4681" opacity="0.22" clip-path="url(#SVGID_12_)" fill="#FFFFFF" enable-background="new    " d="M180.216,185.234
		L180.216,185.234c134.873,0,244.21,53.746,244.21,120.044l0,0c0,66.299-109.337,120.045-244.209,120.045h0
		c-134.873,0-244.208-53.746-244.208-120.045l0,0C-63.992,238.979,45.344,185.234,180.216,185.234z"/>
</g>
<g id="rect4683" filter="url(#filter3878)">
	<linearGradient id="SVGID_13_" gradientUnits="userSpaceOnUse" x1="1261.0737" y1="406.9639" x2="1261.0737" y2="390.4347">
		<stop  offset="0" style="stop-color:#95C4FF"/>
		<stop  offset="1" style="stop-color:#FFFFFF;stop-opacity:0"/>
	</linearGradient>
	<path fill="none" stroke="url(#SVGID_13_)" stroke-width="2.0142" d="M58.349,285.858h243.735c10.472,0,18.961,8.489,18.961,18.961
		v243.635c0,10.473-8.49,18.963-18.961,18.963H58.349c-10.472,0-18.961-8.49-18.961-18.963V304.82
		C39.388,294.348,47.877,285.858,58.349,285.858z"/>
</g>
<g>
	<defs>
		<path id="SVGID_14_" d="M55.988,283.13h248.458c10.675,0,19.329,8.654,19.329,19.329v248.356c0,10.676-8.654,19.328-19.329,19.328
			H55.988c-10.675,0-19.329-8.652-19.329-19.328V302.459C36.659,291.784,45.312,283.13,55.988,283.13z"/>
	</defs>
	<clipPath id="SVGID_15_">
		<use xlink:href="#SVGID_14_"  overflow="visible"/>
	</clipPath>
	<g id="rect4685" clip-path="url(#SVGID_15_)" filter="url(#filter3944)">
		<linearGradient id="SVGID_16_" gradientUnits="userSpaceOnUse" x1="1261.0737" y1="378.3735" x2="1261.0737" y2="390.4343">
			<stop  offset="0" style="stop-color:#000000"/>
			<stop  offset="1" style="stop-color:#000000;stop-opacity:0"/>
		</linearGradient>
		<path fill="none" stroke="url(#SVGID_16_)" stroke-width="2.9401" d="M55.988,283.13h248.457c10.675,0,19.329,8.654,19.329,19.329
			v248.356c0,10.676-8.654,19.328-19.329,19.328H55.988c-10.675,0-19.329-8.652-19.329-19.328V302.459
			C36.659,291.784,45.312,283.13,55.988,283.13z"/>
	</g>
</g>
<g>
	<defs>
		<path id="SVGID_17_" d="M55.988,283.13h248.458c10.675,0,19.329,8.654,19.329,19.329v248.356c0,10.676-8.654,19.328-19.329,19.328
			H55.988c-10.675,0-19.329-8.652-19.329-19.328V302.459C36.659,291.784,45.312,283.13,55.988,283.13z"/>
	</defs>
	<clipPath id="SVGID_18_">
		<use xlink:href="#SVGID_17_"  overflow="visible"/>
	</clipPath>
	<g id="rect4687" clip-path="url(#SVGID_18_)" filter="url(#filter4588)">
		<path fill="none" stroke="#0F132E" stroke-width="2" d="M55.988,283.13h248.458c10.675,0,19.329,8.654,19.329,19.329v248.356
			c0,10.676-8.654,19.328-19.329,19.328H55.988c-10.675,0-19.329-8.652-19.329-19.328V302.459
			C36.659,291.784,45.312,283.13,55.988,283.13z"/>
	</g>
</g>
<path id="path4818" sodipodi:nodetypes="csscccccscccccccccccc" fill="#FFFFFF" d="M200.643,436.678h-23.066l0.349-38.218h22.593
	l0.285-17.942c0.25-15.683,0.462-18.57,1.689-23.061c4.108-15.029,12.473-23.775,26.815-28.042
	c7.149-2.127,14.337-2.711,33.386-2.711h17.641l-0.175,18.931l-0.174,18.931l-13.617,0.329c-14.894,0.36-15.328,0.474-18.607,4.861
	c-1.249,1.67-1.375,2.895-1.571,15.268l-0.213,13.437h34.336l-3.95,38.218h-30.289v109.949h-45.433V436.678L200.643,436.678z"/>
<linearGradient id="rect2844_1_" gradientUnits="userSpaceOnUse" x1="624.5913" y1="361.8379" x2="624.5913" y2="571.9918" gradientTransform="matrix(0.8699 0 0 -0.8699 -362.4514 1267.1228)">
	<stop  offset="0" style="stop-color:#6791D3"/>
	<stop  offset="1" style="stop-color:#2B4374"/>
</linearGradient>
<path id="rect2844" sodipodi:nodetypes="csccsccsccscc" fill="url(#rect2844_1_)" d="M90.34,664.373
	c-14.22-0.002-28.353,5.852-38.407,15.906c-10.055,10.055-15.908,24.188-15.907,38.408v179.361
	c-0.002,14.219,5.852,28.352,15.907,38.408c10.055,10.055,24.188,15.906,38.407,15.906h181.075
	c14.22,0.002,28.353-5.852,38.407-15.906c10.055-10.057,15.908-24.189,15.907-38.408V718.687c0-14.221-5.852-28.354-15.907-38.408
	c-10.055-10.055-24.188-15.908-38.407-15.906H90.34z"/>
<path id="path3622" sodipodi:nodetypes="csccsccsccscc" opacity="0.4634" fill="none" stroke="#FFFFFF" stroke-width="12.495" enable-background="new    " d="
	M97.996,676.548c-13.018-0.002-25.956,5.355-35.16,14.561s-14.563,22.143-14.562,35.16v164.195
	c-0.001,13.018,5.357,25.955,14.562,35.16s22.143,14.564,35.16,14.562h165.763c13.018,0.002,25.955-5.357,35.16-14.562
	c9.205-9.205,14.563-22.143,14.562-35.16V726.269c0-13.018-5.357-25.955-14.562-35.16c-9.205-9.205-22.143-14.562-35.16-14.561
	H97.996L97.996,676.548z"/>
<g>
	<defs>
		<path id="SVGID_19_" d="M90.34,664.373c-14.22-0.002-28.353,5.852-38.407,15.906c-10.055,10.055-15.908,24.188-15.907,38.408
			v179.361c-0.002,14.219,5.852,28.352,15.907,38.408c10.055,10.055,24.188,15.906,38.407,15.906h181.075
			c14.22,0.002,28.353-5.852,38.407-15.906c10.055-10.057,15.908-24.189,15.907-38.408V718.687c0-14.221-5.852-28.354-15.907-38.408
			c-10.055-10.055-24.188-15.908-38.407-15.906H90.34L90.34,664.373z"/>
	</defs>
	<clipPath id="SVGID_20_">
		<use xlink:href="#SVGID_19_"  overflow="visible"/>
	</clipPath>
	
		<linearGradient id="path3638_1_" gradientUnits="userSpaceOnUse" x1="711.7456" y1="751.0728" x2="655.062" y2="589.2598" gradientTransform="matrix(0.894 0 0 -0.8699 -438.3014 1295.2751)">
		<stop  offset="0" style="stop-color:#FFFFFF"/>
		<stop  offset="1" style="stop-color:#FFFFFF;stop-opacity:0.6471"/>
	</linearGradient>
	
		<path id="path3638" sodipodi:cx="805.01617" sodipodi:cy="470.24246" sodipodi:type="arc" sodipodi:rx="233.81876" sodipodi:ry="104.77346" opacity="0.385" clip-path="url(#SVGID_20_)" fill="url(#path3638_1_)" enable-background="new    " d="
		M389.178,691.457c0,50.338-93.585,91.143-209.029,91.143s-209.028-40.805-209.028-91.143c0-50.336,93.585-91.141,209.028-91.141
		S389.178,641.121,389.178,691.457z"/>
</g>
<path id="path4921" sodipodi:nodetypes="csscccccscccccccccccc" fill="#FFFFFF" d="M197.21,814.095h-23.066l0.349-38.217h22.593
	l0.285-17.943c0.25-15.682,0.462-18.57,1.689-23.061c4.108-15.027,12.473-23.775,26.815-28.041
	c7.149-2.127,14.337-2.711,33.386-2.711h17.641l-0.175,18.932l-0.174,18.93l-13.617,0.33c-14.894,0.359-15.328,0.473-18.607,4.859
	c-1.249,1.672-1.375,2.896-1.571,15.27l-0.213,13.436h34.336l-3.95,38.219h-30.289v109.949H197.21V814.097V814.095z"/>
</svg>
